<svg xmlns="http://www.w3.org/2000/svg" xmlns:xlink="http://www.w3.org/1999/xlink" width="900" zoomAndPan="magnify" viewBox="0 0 675 225" height="300" preserveAspectRatio="xMidYMid meet" version="1.0"><defs><clipPath id="88ca54a3df"><path d="M 0 28.746094 L 675 28.746094 L 675 183.1875 L 0 183.1875 Z M 0 28.746094 " clip-rule="nonzero"/></clipPath><clipPath id="d3372170b3"><path d="M 675 81.246094 L 675 130.6875 C 675 144.609375 669.46875 157.964844 659.621094 167.808594 C 649.777344 177.65625 636.425781 183.1875 622.5 183.1875 L 52.5 183.1875 C 38.574219 183.1875 25.222656 177.65625 15.375 167.808594 C 5.53125 157.964844 0 144.609375 0 130.6875 L 0 81.246094 C 0 67.324219 5.53125 53.96875 15.375 44.125 C 25.222656 34.277344 38.574219 28.746094 52.5 28.746094 L 622.5 28.746094 C 636.425781 28.746094 649.777344 34.277344 659.621094 44.125 C 669.46875 53.96875 675 67.324219 675 81.246094 Z M 675 81.246094 " clip-rule="nonzero"/></clipPath><clipPath id="88ea9d5333"><path d="M 0 0.746094 L 675 0.746094 L 675 155.1875 L 0 155.1875 Z M 0 0.746094 " clip-rule="nonzero"/></clipPath><clipPath id="acfe504636"><path d="M 675 53.246094 L 675 102.6875 C 675 116.609375 669.46875 129.964844 659.621094 139.808594 C 649.777344 149.65625 636.425781 155.1875 622.5 155.1875 L 52.5 155.1875 C 38.574219 155.1875 25.222656 149.65625 15.375 139.808594 C 5.53125 129.964844 0 116.609375 0 102.6875 L 0 53.246094 C 0 39.324219 5.53125 25.96875 15.375 16.125 C 25.222656 6.277344 38.574219 0.746094 52.5 0.746094 L 622.5 0.746094 C 636.425781 0.746094 649.777344 6.277344 659.621094 16.125 C 669.46875 25.96875 675 39.324219 675 53.246094 Z M 675 53.246094 " clip-rule="nonzero"/></clipPath><clipPath id="52ef429347"><rect x="0" width="675" y="0" height="156"/></clipPath></defs><g clip-path="url(#88ca54a3df)"><g clip-path="url(#d3372170b3)"><g transform="matrix(1, 0, 0, 1, 0, 28)"><g clip-path="url(#52ef429347)"><g clip-path="url(#88ea9d5333)"><g clip-path="url(#acfe504636)"><path fill="#141414" d="M 0 0.746094 L 675.074219 0.746094 L 675.074219 155.1875 L 0 155.1875 Z M 0 0.746094 " fill-opacity="1" fill-rule="nonzero"/></g></g></g></g></g></g></svg>